Rubik-Bold.ufo
<glyph name="comma" format="2">
  <advance width="303"/>
  <unicode hex="002C"/>
  <guideline y="-75"/>
  <guideline y="228"/>
  <outline>
    <contour>
      <point x="40" y="-75" type="curve" smooth="yes"/>
      <point x="141" y="-75" type="line" smooth="yes"/>
      <point x="167" y="-75"/>
      <point x="179" y="-56"/>
      <point x="184" y="-43" type="curve" smooth="yes"/>
      <point x="279" y="199" type="line" smooth="yes"/>
      <point x="280" y="202"/>
      <point x="280" y="204"/>
      <point x="280" y="206" type="curve" smooth="yes"/>
      <point x="280" y="218"/>
      <point x="270" y="228"/>
      <point x="258" y="228" type="curve" smooth="yes"/>
      <point x="98" y="228" type="line" smooth="yes"/>
      <point x="71" y="228"/>
      <point x="58" y="207"/>
      <point x="55" y="189" type="curve"/>
      <point x="18" y="-53" type="line" smooth="yes"/>
      <point x="16" y="-65"/>
      <point x="28" y="-75"/>
    </contour>
  </outline>
</glyph>
<glyph name="one" format="2">
  <advance width="557"/>
  <unicode hex="0031"/>
  <guideline x="41"/>
  <guideline x="280"/>
  <outline>
    <contour>
      <point x="278" y="0" type="curve" smooth="yes"/>
      <point x="474" y="0" type="line" smooth="yes"/>
      <point x="489" y="0"/>
      <point x="501" y="12"/>
      <point x="501" y="27" type="curve" smooth="yes"/>
      <point x="501" y="673" type="line" smooth="yes"/>
      <point x="501" y="688"/>
      <point x="489" y="700"/>
      <point x="474" y="700" type="curve" smooth="yes"/>
      <point x="285" y="700" type="line" smooth="yes"/>
      <point x="276" y="700"/>
      <point x="270" y="698"/>
      <point x="263" y="693" type="curve" smooth="yes"/>
      <point x="22" y="506" type="line"/>
      <point x="9" y="498"/>
      <point x="6" y="480"/>
      <point x="13" y="467" type="curve"/>
      <point x="101" y="353" type="line" smooth="yes"/>
      <point x="111" y="340"/>
      <point x="126" y="335"/>
      <point x="139" y="345" type="curve" smooth="yes"/>
      <point x="251" y="431" type="line"/>
      <point x="251" y="27" type="line" smooth="yes"/>
      <point x="251" y="12"/>
      <point x="263" y="0"/>
    </contour>
  </outline>
</glyph>
<glyph name="J" format="2">
  <advance width="702"/>
  <unicode hex="004A"/>
  <guideline y="-10"/>
  <guideline x="424"/>
  <guideline x="307"/>
  <guideline x="170"/>
  <outline>
    <contour>
      <point x="327" y="-10" type="curve" smooth="yes"/>
      <point x="509" y="-10"/>
      <point x="653" y="73"/>
      <point x="653" y="258" type="curve" smooth="yes"/>
      <point x="653" y="673" type="line" smooth="yes"/>
      <point x="653" y="688"/>
      <point x="641" y="700"/>
      <point x="626" y="700" type="curve" smooth="yes"/>
      <point x="97" y="700" type="line" smooth="yes"/>
      <point x="82" y="700"/>
      <point x="70" y="688"/>
      <point x="70" y="673" type="curve" smooth="yes"/>
      <point x="70" y="524" type="line" smooth="yes"/>
      <point x="70" y="509"/>
      <point x="82" y="497"/>
      <point x="97" y="497" type="curve" smooth="yes"/>
      <point x="394" y="497" type="line"/>
      <point x="394" y="266" type="line" smooth="yes"/>
      <point x="394" y="205"/>
      <point x="371" y="185"/>
      <point x="335" y="185" type="curve" smooth="yes"/>
      <point x="302" y="185"/>
      <point x="290" y="198"/>
      <point x="277" y="225" type="curve" smooth="yes"/>
      <point x="267" y="247"/>
      <point x="258" y="257"/>
      <point x="236" y="257" type="curve" smooth="yes"/>
      <point x="32" y="257" type="line" smooth="yes"/>
      <point x="20" y="257"/>
      <point x="10" y="247"/>
      <point x="10" y="235" type="curve" smooth="yes"/>
      <point x="13" y="78"/>
      <point x="162" y="-10"/>
    </contour>
  </outline>
</glyph>
<glyph name="L" format="2">
  <advance width="626"/>
  <unicode hex="004C"/>
  <anchor x="313" y="0" name="bottom"/>
  <anchor x="313" y="350" name="center"/>
  <anchor x="173" y="700" name="top"/>
  <anchor x="606" y="700" name="topright"/>
  <outline>
    <contour>
      <point x="82" y="0" type="curve" smooth="yes"/>
      <point x="586" y="0" type="line" smooth="yes"/>
      <point x="601" y="0"/>
      <point x="613" y="12"/>
      <point x="613" y="27" type="curve" smooth="yes"/>
      <point x="613" y="178" type="line" smooth="yes"/>
      <point x="613" y="193"/>
      <point x="601" y="205"/>
      <point x="586" y="205" type="curve" smooth="yes"/>
      <point x="309" y="205" type="line"/>
      <point x="309" y="673" type="line" smooth="yes"/>
      <point x="309" y="688"/>
      <point x="297" y="700"/>
      <point x="282" y="700" type="curve" smooth="yes"/>
      <point x="82" y="700" type="line" smooth="yes"/>
      <point x="67" y="700"/>
      <point x="55" y="688"/>
      <point x="55" y="673" type="curve" smooth="yes"/>
      <point x="55" y="27" type="line" smooth="yes"/>
      <point x="55" y="12"/>
      <point x="67" y="0"/>
    </contour>
  </outline>
</glyph>
<glyph name="Q" format="2">
  <advance width="742"/>
  <unicode hex="0051"/>
  <guideline y="710"/>
  <guideline y="-10"/>
  <guideline y="-42"/>
  <guideline x="47"/>
  <guideline x="715"/>
  <outline>
    <contour>
      <point x="498" y="-65" type="curve"/>
      <point x="694" y="-65" type="line"/>
      <point x="706" y="-65"/>
      <point x="716" y="-55"/>
      <point x="714" y="-43" type="curve" smooth="yes"/>
      <point x="714" y="-40"/>
      <point x="712" y="-36"/>
      <point x="711" y="-34" type="curve"/>
      <point x="632" y="79" type="line"/>
      <point x="675" y="123"/>
      <point x="700" y="184"/>
      <point x="704" y="260" type="curve" smooth="yes"/>
      <point x="706" y="314"/>
      <point x="706" y="379"/>
      <point x="704" y="436" type="curve" smooth="yes"/>
      <point x="697" y="611"/>
      <point x="566" y="710"/>
      <point x="370" y="710" type="curve" smooth="yes"/>
      <point x="174" y="710"/>
      <point x="43" y="611"/>
      <point x="36" y="436" type="curve" smooth="yes"/>
      <point x="34" y="379"/>
      <point x="34" y="314"/>
      <point x="36" y="260" type="curve" smooth="yes"/>
      <point x="44" y="81"/>
      <point x="174" y="-10"/>
      <point x="370" y="-10" type="curve" smooth="yes"/>
      <point x="390" y="-10"/>
      <point x="410" y="-9"/>
      <point x="428" y="-7" type="curve"/>
      <point x="456" y="-42" type="line"/>
      <point x="462" y="-50"/>
      <point x="473" y="-65"/>
    </contour>
    <contour>
      <point x="370" y="185" type="curve" smooth="yes"/>
      <point x="326" y="185"/>
      <point x="298" y="210"/>
      <point x="296" y="266" type="curve" smooth="yes"/>
      <point x="294" y="323"/>
      <point x="294" y="379"/>
      <point x="296" y="434" type="curve" smooth="yes"/>
      <point x="298" y="490"/>
      <point x="327" y="515"/>
      <point x="370" y="515" type="curve" smooth="yes"/>
      <point x="413" y="515"/>
      <point x="442" y="490"/>
      <point x="444" y="434" type="curve" smooth="yes"/>
      <point x="446" y="379"/>
      <point x="446" y="323"/>
      <point x="444" y="266" type="curve" smooth="yes"/>
      <point x="442" y="210"/>
      <point x="414" y="185"/>
    </contour>
  </outline>
</glyph>
<glyph name="e" format="2">
  <advance width="623"/>
  <unicode hex="0065"/>
  <guideline y="-10"/>
  <guideline x="605"/>
  <outline>
    <contour>
      <point x="314" y="-10" type="curve" smooth="yes"/>
      <point x="499" y="-10"/>
      <point x="582" y="94"/>
      <point x="585" y="145" type="curve" smooth="yes"/>
      <point x="586" y="158"/>
      <point x="576" y="167"/>
      <point x="563" y="167" type="curve" smooth="yes"/>
      <point x="374" y="167" type="line" smooth="yes"/>
      <point x="358" y="167"/>
      <point x="353" y="165"/>
      <point x="341" y="153" type="curve" smooth="yes"/>
      <point x="330" y="142"/>
      <point x="324" y="135"/>
      <point x="312" y="135" type="curve" smooth="yes"/>
      <point x="283" y="135"/>
      <point x="273" y="156"/>
      <point x="273" y="196" type="curve" smooth="yes"/>
      <point x="273" y="198"/>
      <point x="273" y="199"/>
      <point x="273" y="201" type="curve"/>
      <point x="571" y="201" type="line" smooth="yes"/>
      <point x="586" y="201"/>
      <point x="598" y="213"/>
      <point x="598" y="228" type="curve" smooth="yes"/>
      <point x="598" y="258" type="line" smooth="yes"/>
      <point x="598" y="405"/>
      <point x="509" y="530"/>
      <point x="313" y="530" type="curve" smooth="yes"/>
      <point x="142" y="530"/>
      <point x="31" y="438"/>
      <point x="28" y="266" type="curve" smooth="yes"/>
      <point x="28" y="264"/>
      <point x="28" y="261"/>
      <point x="28" y="259" type="curve" smooth="yes"/>
      <point x="28" y="72"/>
      <point x="139" y="-10"/>
    </contour>
    <contour>
      <point x="273" y="326" type="line"/>
      <point x="273" y="327" type="line"/>
      <point x="273" y="371"/>
      <point x="287" y="390"/>
      <point x="313" y="390" type="curve" smooth="yes"/>
      <point x="339" y="390"/>
      <point x="353" y="371"/>
      <point x="353" y="327" type="curve"/>
      <point x="353" y="326" type="line"/>
    </contour>
  </outline>
</glyph>
<glyph name="t" format="2">
  <advance width="532"/>
  <unicode hex="0074"/>
  <guideline y="356"/>
  <guideline y="345"/>
  <guideline y="175"/>
  <outline>
    <contour>
      <point x="367" y="0" type="curve" smooth="yes"/>
      <point x="480" y="0" type="line" smooth="yes"/>
      <point x="495" y="0"/>
      <point x="507" y="12"/>
      <point x="507" y="27" type="curve" smooth="yes"/>
      <point x="507" y="158" type="line" smooth="yes"/>
      <point x="507" y="173"/>
      <point x="495" y="185"/>
      <point x="480" y="185" type="curve" smooth="yes"/>
      <point x="389" y="185" type="line" smooth="yes"/>
      <point x="359" y="185"/>
      <point x="346" y="204"/>
      <point x="346" y="235" type="curve" smooth="yes"/>
      <point x="346" y="345" type="line"/>
      <point x="472" y="345" type="line" smooth="yes"/>
      <point x="487" y="345"/>
      <point x="499" y="357"/>
      <point x="499" y="372" type="curve" smooth="yes"/>
      <point x="499" y="493" type="line" smooth="yes"/>
      <point x="499" y="508"/>
      <point x="487" y="520"/>
      <point x="472" y="520" type="curve" smooth="yes"/>
      <point x="346" y="520" type="line"/>
      <point x="346" y="683" type="line" smooth="yes"/>
      <point x="346" y="698"/>
      <point x="334" y="710"/>
      <point x="319" y="710" type="curve" smooth="yes"/>
      <point x="144" y="710" type="line" smooth="yes"/>
      <point x="129" y="710"/>
      <point x="117" y="698"/>
      <point x="117" y="683" type="curve" smooth="yes"/>
      <point x="117" y="520" type="line"/>
      <point x="38" y="520" type="line" smooth="yes"/>
      <point x="23" y="520"/>
      <point x="11" y="508"/>
      <point x="11" y="493" type="curve" smooth="yes"/>
      <point x="11" y="372" type="line" smooth="yes"/>
      <point x="11" y="357"/>
      <point x="23" y="345"/>
      <point x="38" y="345" type="curve" smooth="yes"/>
      <point x="117" y="345" type="line"/>
      <point x="117" y="215" type="line" smooth="yes"/>
      <point x="117" y="51"/>
      <point x="222" y="0"/>
    </contour>
  </outline>
</glyph>
<glyph name="w" format="2">
  <advance width="869"/>
  <unicode hex="0077"/>
  <guideline y="291"/>
  <outline>
    <contour>
      <point x="196" y="0" type="curve" smooth="yes"/>
      <point x="330" y="0" type="line" smooth="yes"/>
      <point x="350" y="0"/>
      <point x="359" y="13"/>
      <point x="363" y="25" type="curve" smooth="yes"/>
      <point x="435" y="227" type="line"/>
      <point x="506" y="25" type="line" smooth="yes"/>
      <point x="510" y="13"/>
      <point x="519" y="0"/>
      <point x="539" y="0" type="curve" smooth="yes"/>
      <point x="673" y="0" type="line" smooth="yes"/>
      <point x="693" y="0"/>
      <point x="702" y="13"/>
      <point x="706" y="25" type="curve" smooth="yes"/>
      <point x="852" y="488" type="line" smooth="yes"/>
      <point x="853" y="492"/>
      <point x="853" y="494"/>
      <point x="853" y="496" type="curve" smooth="yes"/>
      <point x="853" y="509"/>
      <point x="842" y="520"/>
      <point x="829" y="520" type="curve" smooth="yes"/>
      <point x="675" y="520" type="line" smooth="yes"/>
      <point x="655" y="520"/>
      <point x="644" y="507"/>
      <point x="641" y="496" type="curve" smooth="yes"/>
      <point x="580" y="288" type="line"/>
      <point x="515" y="496" type="line" smooth="yes"/>
      <point x="512" y="507"/>
      <point x="501" y="520"/>
      <point x="481" y="520" type="curve" smooth="yes"/>
      <point x="388" y="520" type="line" smooth="yes"/>
      <point x="368" y="520"/>
      <point x="357" y="507"/>
      <point x="354" y="496" type="curve" smooth="yes"/>
      <point x="289" y="288" type="line"/>
      <point x="228" y="496" type="line" smooth="yes"/>
      <point x="225" y="507"/>
      <point x="214" y="520"/>
      <point x="194" y="520" type="curve" smooth="yes"/>
      <point x="40" y="520" type="line" smooth="yes"/>
      <point x="27" y="520"/>
      <point x="16" y="509"/>
      <point x="16" y="496" type="curve" smooth="yes"/>
      <point x="16" y="494"/>
      <point x="16" y="492"/>
      <point x="17" y="488" type="curve" smooth="yes"/>
      <point x="163" y="25" type="line" smooth="yes"/>
      <point x="167" y="13"/>
      <point x="176" y="0"/>
    </contour>
  </outline>
</glyph>
<glyph name="acute" format="2">
  <advance width="450"/>
  <unicode hex="00B4"/>
  <guideline y="595"/>
  <outline>
    <contour>
      <point x="66" y="595" type="curve" smooth="yes"/>
      <point x="203" y="595" type="line" smooth="yes"/>
      <point x="224" y="595"/>
      <point x="234" y="603"/>
      <point x="245" y="612" type="curve" smooth="yes"/>
      <point x="392" y="733" type="line" smooth="yes"/>
      <point x="395" y="736"/>
      <point x="397" y="740"/>
      <point x="397" y="745" type="curve" smooth="yes"/>
      <point x="397" y="757"/>
      <point x="390" y="765"/>
      <point x="378" y="765" type="curve" smooth="yes"/>
      <point x="192" y="765" type="line" smooth="yes"/>
      <point x="177" y="765"/>
      <point x="170" y="763"/>
      <point x="155" y="746" type="curve"/>
      <point x="55" y="624" type="line" smooth="yes"/>
      <point x="52" y="621"/>
      <point x="50" y="616"/>
      <point x="50" y="611" type="curve" smooth="yes"/>
      <point x="50" y="601"/>
      <point x="56" y="595"/>
    </contour>
  </outline>
</glyph>
<glyph name="paragraph" format="2">
  <advance width="709"/>
  <unicode hex="00B6"/>
  <guideline y="-100"/>
  <guideline y="306"/>
  <guideline y="503"/>
  <guideline x="237"/>
  <outline>
    <contour>
      <point x="247" y="-100" type="curve" smooth="yes"/>
      <point x="368" y="-100" type="line" smooth="yes"/>
      <point x="383" y="-100"/>
      <point x="395" y="-88"/>
      <point x="395" y="-73" type="curve" smooth="yes"/>
      <point x="395" y="550" type="line"/>
      <point x="474" y="550" type="line"/>
      <point x="474" y="-73" type="line" smooth="yes"/>
      <point x="474" y="-88"/>
      <point x="486" y="-100"/>
      <point x="501" y="-100" type="curve" smooth="yes"/>
      <point x="622" y="-100" type="line" smooth="yes"/>
      <point x="637" y="-100"/>
      <point x="649" y="-88"/>
      <point x="649" y="-73" type="curve" smooth="yes"/>
      <point x="649" y="673" type="line" smooth="yes"/>
      <point x="649" y="688"/>
      <point x="637" y="700"/>
      <point x="622" y="700" type="curve" smooth="yes"/>
      <point x="220" y="700" type="line" smooth="yes"/>
      <point x="111" y="700"/>
      <point x="23" y="612"/>
      <point x="23" y="503" type="curve" smooth="yes"/>
      <point x="23" y="394"/>
      <point x="111" y="306"/>
      <point x="220" y="306" type="curve"/>
      <point x="220" y="-73" type="line" smooth="yes"/>
      <point x="220" y="-88"/>
      <point x="232" y="-100"/>
    </contour>
  </outline>
</glyph>
<glyph name="Eogonek" format="2">
  <advance width="667"/>
  <unicode hex="0118"/>
  <guideline y="-220"/>
  <outline>
    <contour>
      <point x="589" y="-220" type="curve" smooth="yes"/>
      <point x="603" y="-220" type="line" smooth="yes"/>
      <point x="618" y="-220"/>
      <point x="630" y="-208"/>
      <point x="630" y="-193" type="curve" smooth="yes"/>
      <point x="630" y="-125" type="line" smooth="yes"/>
      <point x="630" y="-110"/>
      <point x="618" y="-98"/>
      <point x="603" y="-98" type="curve" smooth="yes"/>
      <point x="593" y="-98" type="line" smooth="yes"/>
      <point x="554" y="-98"/>
      <point x="543" y="-70"/>
      <point x="543" y="-49" type="curve" smooth="yes"/>
      <point x="543" y="-28"/>
      <point x="554" y="0"/>
      <point x="593" y="0" type="curve" smooth="yes"/>
      <point x="603" y="0" type="line" smooth="yes"/>
      <point x="618" y="0"/>
      <point x="630" y="12"/>
      <point x="630" y="27" type="curve" smooth="yes"/>
      <point x="630" y="168" type="line" smooth="yes"/>
      <point x="630" y="183"/>
      <point x="618" y="195"/>
      <point x="603" y="195" type="curve" smooth="yes"/>
      <point x="295" y="195" type="line"/>
      <point x="295" y="258" type="line"/>
      <point x="573" y="258" type="line" smooth="yes"/>
      <point x="588" y="258"/>
      <point x="600" y="270"/>
      <point x="600" y="285" type="curve" smooth="yes"/>
      <point x="600" y="415" type="line" smooth="yes"/>
      <point x="600" y="430"/>
      <point x="588" y="442"/>
      <point x="573" y="442" type="curve" smooth="yes"/>
      <point x="295" y="442" type="line"/>
      <point x="295" y="505" type="line"/>
      <point x="595" y="505" type="line" smooth="yes"/>
      <point x="610" y="505"/>
      <point x="622" y="517"/>
      <point x="622" y="532" type="curve" smooth="yes"/>
      <point x="622" y="673" type="line" smooth="yes"/>
      <point x="622" y="688"/>
      <point x="610" y="700"/>
      <point x="595" y="700" type="curve" smooth="yes"/>
      <point x="82" y="700" type="line" smooth="yes"/>
      <point x="67" y="700"/>
      <point x="55" y="688"/>
      <point x="55" y="673" type="curve" smooth="yes"/>
      <point x="55" y="27" type="line" smooth="yes"/>
      <point x="55" y="12"/>
      <point x="67" y="0"/>
      <point x="82" y="0" type="curve" smooth="yes"/>
      <point x="422" y="0" type="line"/>
      <point x="419" y="-16"/>
      <point x="417" y="-31"/>
      <point x="417" y="-49" type="curve" smooth="yes"/>
      <point x="417" y="-144"/>
      <point x="468" y="-220"/>
    </contour>
  </outline>
</glyph>
<glyph name="Ge-cy" format="2">
  <advance width="599"/>
  <unicode hex="0413"/>
  <anchor x="55" y="0" name="bottomright"/>
  <anchor x="178" y="350" name="center"/>
  <anchor x="353" y="700" name="top"/>
  <outline>
    <contour>
      <point x="82" y="0" type="curve" smooth="yes"/>
      <point x="278" y="0" type="line" smooth="yes"/>
      <point x="293" y="0"/>
      <point x="305" y="12"/>
      <point x="305" y="27" type="curve" smooth="yes"/>
      <point x="305" y="495" type="line"/>
      <point x="552" y="495" type="line" smooth="yes"/>
      <point x="567" y="495"/>
      <point x="579" y="507"/>
      <point x="579" y="522" type="curve" smooth="yes"/>
      <point x="579" y="673" type="line" smooth="yes"/>
      <point x="579" y="688"/>
      <point x="567" y="700"/>
      <point x="552" y="700" type="curve" smooth="yes"/>
      <point x="82" y="700" type="line" smooth="yes"/>
      <point x="67" y="700"/>
      <point x="55" y="688"/>
      <point x="55" y="673" type="curve" smooth="yes"/>
      <point x="55" y="27" type="line" smooth="yes"/>
      <point x="55" y="12"/>
      <point x="67" y="0"/>
    </contour>
  </outline>
</glyph>
<glyph name="De-cy" format="2">
  <advance width="845"/>
  <unicode hex="0414"/>
  <guideline x="20" y="-110" angle="0"/>
  <outline>
    <contour>
      <point x="62" y="-140" type="curve" smooth="yes"/>
      <point x="258" y="-140" type="line" smooth="yes"/>
      <point x="273" y="-140"/>
      <point x="285" y="-128"/>
      <point x="285" y="-113" type="curve" smooth="yes"/>
      <point x="285" y="0" type="line"/>
      <point x="565" y="0" type="line"/>
      <point x="565" y="-113" type="line" smooth="yes"/>
      <point x="565" y="-128"/>
      <point x="577" y="-140"/>
      <point x="592" y="-140" type="curve" smooth="yes"/>
      <point x="788" y="-140" type="line" smooth="yes"/>
      <point x="803" y="-140"/>
      <point x="815" y="-128"/>
      <point x="815" y="-113" type="curve" smooth="yes"/>
      <point x="815" y="193" type="line" smooth="yes"/>
      <point x="815" y="208"/>
      <point x="803" y="220"/>
      <point x="788" y="220" type="curve" smooth="yes"/>
      <point x="743" y="220" type="line"/>
      <point x="743" y="673" type="line" smooth="yes"/>
      <point x="743" y="688"/>
      <point x="731" y="700"/>
      <point x="716" y="700" type="curve" smooth="yes"/>
      <point x="178" y="700" type="line" smooth="yes"/>
      <point x="163" y="700"/>
      <point x="151" y="688"/>
      <point x="151" y="673" type="curve" smooth="yes"/>
      <point x="151" y="481" type="line" smooth="yes"/>
      <point x="151" y="363"/>
      <point x="143" y="220"/>
      <point x="77" y="220" type="curve" smooth="yes"/>
      <point x="62" y="220" type="line" smooth="yes"/>
      <point x="47" y="220"/>
      <point x="35" y="208"/>
      <point x="35" y="193" type="curve" smooth="yes"/>
      <point x="35" y="-113" type="line" smooth="yes"/>
      <point x="35" y="-129"/>
      <point x="47" y="-140"/>
    </contour>
    <contour>
      <point x="362" y="220" type="line"/>
      <point x="381" y="274"/>
      <point x="391" y="350"/>
      <point x="391" y="449" type="curve" smooth="yes"/>
      <point x="391" y="480" type="line"/>
      <point x="493" y="480" type="line"/>
      <point x="493" y="220" type="line"/>
    </contour>
  </outline>
</glyph>
<glyph name="Softsign-cy" format="2">
  <advance width="705"/>
  <unicode hex="042C"/>
  <outline>
    <contour>
      <point x="82" y="0" type="curve" smooth="yes"/>
      <point x="370" y="0" type="line" smooth="yes"/>
      <point x="562" y="0"/>
      <point x="676" y="84"/>
      <point x="676" y="245" type="curve" smooth="yes"/>
      <point x="676" y="406"/>
      <point x="563" y="482"/>
      <point x="370" y="482" type="curve" smooth="yes"/>
      <point x="305" y="482" type="line"/>
      <point x="305" y="673" type="line" smooth="yes"/>
      <point x="305" y="688"/>
      <point x="293" y="700"/>
      <point x="278" y="700" type="curve" smooth="yes"/>
      <point x="82" y="700" type="line" smooth="yes"/>
      <point x="67" y="700"/>
      <point x="55" y="688"/>
      <point x="55" y="673" type="curve" smooth="yes"/>
      <point x="55" y="27" type="line" smooth="yes"/>
      <point x="55" y="12"/>
      <point x="67" y="0"/>
    </contour>
    <contour>
      <point x="305" y="186" type="line"/>
      <point x="305" y="297" type="line"/>
      <point x="370" y="297" type="line" smooth="yes"/>
      <point x="394" y="297"/>
      <point x="416" y="279"/>
      <point x="416" y="243" type="curve" smooth="yes"/>
      <point x="416" y="212"/>
      <point x="402" y="186"/>
      <point x="370" y="186" type="curve" smooth="yes"/>
    </contour>
  </outline>
</glyph>
<glyph name="ia-cy" format="2">
  <advance width="655"/>
  <unicode hex="044F"/>
  <guideline x="618"/>
  <guideline x="151" y="394" angle="90"/>
  <outline>
    <contour>
      <point x="391" y="0" type="curve" smooth="yes"/>
      <point x="576" y="0" type="line" smooth="yes"/>
      <point x="591" y="0"/>
      <point x="603" y="12"/>
      <point x="603" y="27" type="curve" smooth="yes"/>
      <point x="603" y="493" type="line" smooth="yes"/>
      <point x="603" y="508"/>
      <point x="591" y="520"/>
      <point x="576" y="520" type="curve" smooth="yes"/>
      <point x="284" y="520" type="line" smooth="yes"/>
      <point x="151" y="520"/>
      <point x="60" y="452"/>
      <point x="60" y="336" type="curve" smooth="yes"/>
      <point x="60" y="220"/>
      <point x="151" y="156"/>
      <point x="307" y="156" type="curve"/>
      <point x="307" y="151" type="line"/>
      <point x="364" y="151" type="line"/>
      <point x="364" y="27" type="line" smooth="yes"/>
      <point x="364" y="12"/>
      <point x="376" y="0"/>
    </contour>
    <contour>
      <point x="62" y="0" type="curve" smooth="yes"/>
      <point x="242" y="0" type="line" smooth="yes"/>
      <point x="253" y="0"/>
      <point x="260" y="5"/>
      <point x="264" y="15" type="curve" smooth="yes"/>
      <point x="329" y="166" type="line"/>
      <point x="140" y="206" type="line"/>
      <point x="43" y="31" type="line"/>
      <point x="41" y="27"/>
      <point x="40" y="23"/>
      <point x="40" y="20" type="curve" smooth="yes"/>
      <point x="40" y="9"/>
      <point x="49" y="0"/>
    </contour>
    <contour>
      <point x="304" y="300" type="line" smooth="yes"/>
      <point x="277" y="300"/>
      <point x="264" y="313"/>
      <point x="264" y="336" type="curve" smooth="yes"/>
      <point x="264" y="359"/>
      <point x="277" y="371"/>
      <point x="304" y="371" type="curve" smooth="yes"/>
      <point x="369" y="371" type="line"/>
      <point x="369" y="300" type="line"/>
    </contour>
  </outline>
</glyph>
<glyph name="Yat-cy" format="2">
  <advance width="781"/>
  <unicode hex="0462"/>
  <outline>
    <contour>
      <point x="40" y="520" type="curve"/>
      <point x="532" y="520" type="line"/>
      <point x="545" y="520"/>
      <point x="555" y="530"/>
      <point x="555" y="543" type="curve" smooth="yes"/>
      <point x="555" y="620" type="line" smooth="yes"/>
      <point x="555" y="633"/>
      <point x="548" y="643"/>
      <point x="532" y="643" type="curve"/>
      <point x="40" y="643" type="line"/>
      <point x="24" y="643"/>
      <point x="17" y="633"/>
      <point x="17" y="620" type="curve" smooth="yes"/>
      <point x="17" y="543" type="line" smooth="yes"/>
      <point x="17" y="530"/>
      <point x="27" y="520"/>
    </contour>
    <contour>
      <point x="158" y="0" type="curve" smooth="yes"/>
      <point x="446" y="0" type="line" smooth="yes"/>
      <point x="638" y="0"/>
      <point x="752" y="84"/>
      <point x="752" y="245" type="curve" smooth="yes"/>
      <point x="752" y="406"/>
      <point x="639" y="482"/>
      <point x="446" y="482" type="curve" smooth="yes"/>
      <point x="381" y="482" type="line"/>
      <point x="381" y="683" type="line" smooth="yes"/>
      <point x="381" y="698"/>
      <point x="369" y="710"/>
      <point x="354" y="710" type="curve" smooth="yes"/>
      <point x="158" y="710" type="line" smooth="yes"/>
      <point x="143" y="710"/>
      <point x="131" y="698"/>
      <point x="131" y="683" type="curve" smooth="yes"/>
      <point x="131" y="27" type="line" smooth="yes"/>
      <point x="131" y="12"/>
      <point x="143" y="0"/>
    </contour>
    <contour>
      <point x="381" y="186" type="line"/>
      <point x="381" y="297" type="line"/>
      <point x="446" y="297" type="line" smooth="yes"/>
      <point x="477" y="297"/>
      <point x="492" y="279"/>
      <point x="492" y="243" type="curve" smooth="yes"/>
      <point x="492" y="212"/>
      <point x="478" y="186"/>
      <point x="446" y="186" type="curve" smooth="yes"/>
    </contour>
  </outline>
</glyph>
<glyph name="Ghestroke-cy" format="2">
  <advance width="599"/>
  <unicode hex="0492"/>
  <outline>
    <contour>
      <point x="82" y="0" type="curve" smooth="yes"/>
      <point x="268" y="0" type="line" smooth="yes"/>
      <point x="283" y="0"/>
      <point x="295" y="12"/>
      <point x="295" y="27" type="curve" smooth="yes"/>
      <point x="295" y="495" type="line"/>
      <point x="552" y="495" type="line" smooth="yes"/>
      <point x="567" y="495"/>
      <point x="579" y="507"/>
      <point x="579" y="522" type="curve" smooth="yes"/>
      <point x="579" y="673" type="line" smooth="yes"/>
      <point x="579" y="688"/>
      <point x="567" y="700"/>
      <point x="552" y="700" type="curve" smooth="yes"/>
      <point x="82" y="700" type="line" smooth="yes"/>
      <point x="67" y="700"/>
      <point x="55" y="688"/>
      <point x="55" y="673" type="curve" smooth="yes"/>
      <point x="55" y="27" type="line" smooth="yes"/>
      <point x="55" y="12"/>
      <point x="67" y="0"/>
    </contour>
    <contour>
      <point x="10" y="269" type="curve" smooth="yes"/>
      <point x="385" y="269" type="line" smooth="yes"/>
      <point x="400" y="269"/>
      <point x="412" y="281"/>
      <point x="412" y="296" type="curve" smooth="yes"/>
      <point x="412" y="364" type="line" smooth="yes"/>
      <point x="412" y="379"/>
      <point x="400" y="391"/>
      <point x="385" y="391" type="curve" smooth="yes"/>
      <point x="10" y="391" type="line" smooth="yes"/>
      <point x="-5" y="391"/>
      <point x="-17" y="379"/>
      <point x="-17" y="364" type="curve" smooth="yes"/>
      <point x="-17" y="296" type="line" smooth="yes"/>
      <point x="-17" y="281"/>
      <point x="-5" y="269"/>
    </contour>
  </outline>
</glyph>
<glyph name="chekhakassian-cy" format="2">
  <advance width="652"/>
  <unicode hex="04CC"/>
  <outline>
    <contour>
      <point x="507" y="-110" type="line" smooth="yes"/>
      <point x="522" y="-110"/>
      <point x="534" y="-98"/>
      <point x="534" y="-83" type="curve" smooth="yes"/>
      <point x="534" y="0" type="line"/>
      <point x="558" y="0" type="line"/>
      <point x="600" y="105" type="line"/>
      <point x="328" y="105" type="line" smooth="yes"/>
      <point x="313" y="105"/>
      <point x="301" y="93"/>
      <point x="301" y="78" type="curve" smooth="yes"/>
      <point x="301" y="-83" type="line" smooth="yes"/>
      <point x="301" y="-98"/>
      <point x="313" y="-110"/>
      <point x="328" y="-110" type="curve" smooth="yes"/>
    </contour>
    <component base="che-cy"/>
  </outline>
</glyph>
<glyph name="alef-hb" format="2">
  <advance width="674"/>
  <unicode hex="05D0"/>
  <guideline x="3" y="431" angle="0"/>
  <guideline x="35"/>
  <guideline x="597"/>
  <anchor x="318" y="0" name="bottom"/>
  <anchor x="23" y="0" name="bottomleft"/>
  <anchor x="296" y="24" name="center"/>
  <anchor x="318" y="520" name="top"/>
  <anchor x="23" y="520" name="topleft"/>
  <outline>
    <contour>
      <point x="437" y="0" type="curve" smooth="yes"/>
      <point x="612" y="0" type="line" smooth="yes"/>
      <point x="624" y="0"/>
      <point x="634" y="10"/>
      <point x="634" y="22" type="curve" smooth="yes"/>
      <point x="634" y="24"/>
      <point x="635" y="28"/>
      <point x="631" y="33" type="curve" smooth="yes"/>
      <point x="271" y="546" type="line" smooth="yes"/>
      <point x="266" y="553"/>
      <point x="255" y="571"/>
      <point x="229" y="571" type="curve" smooth="yes"/>
      <point x="62" y="571" type="line" smooth="yes"/>
      <point x="50" y="571"/>
      <point x="40" y="561"/>
      <point x="40" y="549" type="curve" smooth="yes"/>
      <point x="40" y="544"/>
      <point x="40" y="542"/>
      <point x="43" y="538" type="curve" smooth="yes"/>
      <point x="396" y="23" type="line" smooth="yes"/>
      <point x="400" y="18"/>
      <point x="411" y="0"/>
    </contour>
    <contour>
      <point x="69" y="0" type="curve" smooth="yes"/>
      <point x="208" y="0" type="line" smooth="yes"/>
      <point x="223" y="0"/>
      <point x="235" y="12"/>
      <point x="235" y="29" type="curve" smooth="yes"/>
      <point x="235" y="140" type="line" smooth="yes"/>
      <point x="235" y="163"/>
      <point x="233" y="209"/>
      <point x="264" y="237" type="curve"/>
      <point x="160" y="387" type="line"/>
      <point x="70" y="319"/>
      <point x="42" y="263"/>
      <point x="42" y="136" type="curve" smooth="yes"/>
      <point x="42" y="29" type="line" smooth="yes"/>
      <point x="42" y="14"/>
      <point x="54" y="0"/>
    </contour>
    <contour>
      <point x="492" y="203" type="line"/>
      <point x="593" y="266"/>
      <point x="622" y="349"/>
      <point x="622" y="427" type="curve" smooth="yes"/>
      <point x="622" y="542" type="line" smooth="yes"/>
      <point x="622" y="557"/>
      <point x="610" y="571"/>
      <point x="595" y="571" type="curve" smooth="yes"/>
      <point x="446" y="571" type="line" smooth="yes"/>
      <point x="431" y="571"/>
      <point x="419" y="559"/>
      <point x="419" y="542" type="curve" smooth="yes"/>
      <point x="419" y="431" type="line" smooth="yes"/>
      <point x="419" y="410"/>
      <point x="417" y="369"/>
      <point x="382" y="350" type="curve"/>
    </contour>
  </outline>
</glyph>
<glyph name="zayin-hb" format="2">
  <advance width="433"/>
  <unicode hex="05D6"/>
  <anchor x="207" y="0" name="bottom"/>
  <anchor x="33" y="0" name="bottomleft"/>
  <anchor x="30" y="260" name="center"/>
  <anchor x="263" y="520" name="top"/>
  <anchor x="33" y="520" name="topleft"/>
  <outline>
    <contour>
      <point x="124" y="0" type="curve" smooth="yes"/>
      <point x="291" y="0" type="line" smooth="yes"/>
      <point x="304" y="0"/>
      <point x="323" y="9"/>
      <point x="323" y="22" type="curve"/>
      <point x="323" y="272" type="line" smooth="yes"/>
      <point x="323" y="356"/>
      <point x="345" y="423"/>
      <point x="379" y="423" type="curve"/>
      <point x="166" y="423" type="line"/>
      <point x="117" y="423"/>
      <point x="102" y="377"/>
      <point x="102" y="286" type="curve" smooth="yes"/>
      <point x="102" y="22" type="line" smooth="yes"/>
      <point x="102" y="9"/>
      <point x="111" y="0"/>
    </contour>
    <contour>
      <point x="52" y="396" type="curve" smooth="yes"/>
      <point x="381" y="396" type="line" smooth="yes"/>
      <point x="398" y="396"/>
      <point x="408" y="410"/>
      <point x="408" y="423" type="curve" smooth="yes"/>
      <point x="408" y="544" type="line" smooth="yes"/>
      <point x="408" y="559"/>
      <point x="396" y="571"/>
      <point x="381" y="571" type="curve" smooth="yes"/>
      <point x="52" y="571" type="line" smooth="yes"/>
      <point x="37" y="571"/>
      <point x="25" y="559"/>
      <point x="25" y="544" type="curve" smooth="yes"/>
      <point x="25" y="423" type="line" smooth="yes"/>
      <point x="25" y="408"/>
      <point x="37" y="396"/>
    </contour>
  </outline>
</glyph>
<glyph name="mem-hb" format="2">
  <advance width="720"/>
  <unicode hex="05DE"/>
  <guideline y="321"/>
  <guideline x="30"/>
  <guideline x="373"/>
  <anchor x="360" y="0" name="bottom"/>
  <anchor x="20" y="0" name="bottomleft"/>
  <anchor x="386" y="230" name="center"/>
  <anchor x="360" y="520" name="top"/>
  <anchor x="20" y="520" name="topleft"/>
  <outline>
    <contour>
      <point x="396" y="387" type="line"/>
      <point x="431" y="387"/>
      <point x="456" y="367"/>
      <point x="456" y="317" type="curve" smooth="yes"/>
      <point x="456" y="175" type="line"/>
      <point x="370" y="175" type="line" smooth="yes"/>
      <point x="355" y="175"/>
      <point x="343" y="163"/>
      <point x="343" y="148" type="curve" smooth="yes"/>
      <point x="343" y="27" type="line" smooth="yes"/>
      <point x="343" y="12"/>
      <point x="355" y="0"/>
      <point x="370" y="0" type="curve" smooth="yes"/>
      <point x="652" y="0" type="line" smooth="yes"/>
      <point x="667" y="0"/>
      <point x="679" y="12"/>
      <point x="679" y="27" type="curve" smooth="yes"/>
      <point x="679" y="327" type="line" smooth="yes"/>
      <point x="679" y="506"/>
      <point x="572" y="571"/>
      <point x="432" y="571" type="curve"/>
      <point x="64" y="571" type="line" smooth="yes"/>
      <point x="49" y="571"/>
      <point x="37" y="559"/>
      <point x="37" y="544" type="curve" smooth="yes"/>
      <point x="37" y="413" type="line" smooth="yes"/>
      <point x="37" y="398"/>
      <point x="49" y="386"/>
      <point x="64" y="386" type="curve" smooth="yes"/>
    </contour>
    <contour>
      <point x="57" y="0" type="curve" smooth="yes"/>
      <point x="220" y="0" type="line" smooth="yes"/>
      <point x="235" y="0"/>
      <point x="247" y="12"/>
      <point x="247" y="27" type="curve"/>
      <point x="348" y="429" type="line" smooth="yes"/>
      <point x="352" y="443"/>
      <point x="336" y="461"/>
      <point x="321" y="461" type="curve" smooth="yes"/>
      <point x="180" y="461" type="line" smooth="yes"/>
      <point x="165" y="461"/>
      <point x="157" y="448"/>
      <point x="153" y="434" type="curve" smooth="yes"/>
      <point x="30" y="27" type="line" smooth="yes"/>
      <point x="26" y="12"/>
      <point x="42" y="0"/>
    </contour>
  </outline>
</glyph>
<glyph name="pe-hb" format="2">
  <advance width="597"/>
  <unicode hex="05E4"/>
  <guideline x="10" y="571" angle="0"/>
  <guideline x="10" y="336" angle="0"/>
  <anchor x="280" y="0" name="bottom"/>
  <anchor x="30" y="0" name="bottomleft"/>
  <anchor x="313" y="250" name="center"/>
  <anchor x="280" y="520" name="top"/>
  <anchor x="30" y="520" name="topleft"/>
  <outline>
    <contour>
      <point x="212" y="386" type="line"/>
      <point x="271" y="386" type="line" smooth="yes"/>
      <point x="320" y="386"/>
      <point x="367" y="361"/>
      <point x="370" y="311" type="curve" smooth="yes"/>
      <point x="371" y="291"/>
      <point x="371" y="280"/>
      <point x="370" y="260" type="curve" smooth="yes"/>
      <point x="367" y="210"/>
      <point x="320" y="185"/>
      <point x="271" y="185" type="curve" smooth="yes"/>
      <point x="74" y="185" type="line" smooth="yes"/>
      <point x="59" y="185"/>
      <point x="47" y="173"/>
      <point x="47" y="158" type="curve" smooth="yes"/>
      <point x="47" y="27" type="line" smooth="yes"/>
      <point x="47" y="12"/>
      <point x="59" y="0"/>
      <point x="74" y="0" type="curve" smooth="yes"/>
      <point x="276" y="0" type="line" smooth="yes"/>
      <point x="481" y="0"/>
      <point x="560" y="109"/>
      <point x="568" y="263" type="curve" smooth="yes"/>
      <point x="569" y="283"/>
      <point x="569" y="288"/>
      <point x="568" y="308" type="curve" smooth="yes"/>
      <point x="560" y="462"/>
      <point x="481" y="571"/>
      <point x="276" y="571" type="curve" smooth="yes"/>
      <point x="63" y="571" type="line" smooth="yes"/>
      <point x="48" y="571"/>
      <point x="39" y="559"/>
      <point x="36" y="544" type="curve" smooth="yes"/>
      <point x="36" y="398" type="line"/>
      <point x="36" y="300"/>
      <point x="101" y="227"/>
      <point x="169" y="220" type="curve" smooth="yes"/>
      <point x="212" y="215" type="line" smooth="yes"/>
      <point x="243" y="212"/>
      <point x="265" y="228"/>
      <point x="265" y="253" type="curve" smooth="yes"/>
      <point x="264" y="322" type="line" smooth="yes"/>
      <point x="264" y="334"/>
      <point x="258" y="347"/>
      <point x="247" y="352" type="curve" smooth="yes"/>
      <point x="226" y="361" type="line" smooth="yes"/>
      <point x="219" y="364"/>
      <point x="214" y="371"/>
      <point x="212" y="380" type="curve"/>
    </contour>
  </outline>
</glyph>
<glyph name="guilsinglright" format="2">
  <advance width="342"/>
  <unicode hex="203A"/>
  <outline>
    <contour>
      <point x="76" y="52" type="curve" smooth="yes"/>
      <point x="77" y="52"/>
      <point x="84" y="52"/>
      <point x="90" y="57" type="curve" smooth="yes"/>
      <point x="307" y="268" type="line" smooth="yes"/>
      <point x="315" y="275"/>
      <point x="321" y="284"/>
      <point x="321" y="296" type="curve" smooth="yes"/>
      <point x="321" y="362" type="line" smooth="yes"/>
      <point x="321" y="374"/>
      <point x="315" y="383"/>
      <point x="307" y="390" type="curve" smooth="yes"/>
      <point x="90" y="601" type="line" smooth="yes"/>
      <point x="84" y="606"/>
      <point x="77" y="606"/>
      <point x="76" y="606" type="curve" smooth="yes"/>
      <point x="64" y="606"/>
      <point x="54" y="596"/>
      <point x="54" y="584" type="curve" smooth="yes"/>
      <point x="54" y="443" type="line" smooth="yes"/>
      <point x="54" y="420"/>
      <point x="59" y="411"/>
      <point x="72" y="398" type="curve" smooth="yes"/>
      <point x="141" y="329" type="line"/>
      <point x="72" y="260" type="line" smooth="yes"/>
      <point x="59" y="247"/>
      <point x="54" y="238"/>
      <point x="54" y="215" type="curve" smooth="yes"/>
      <point x="54" y="74" type="line" smooth="yes"/>
      <point x="54" y="62"/>
      <point x="64" y="52"/>
    </contour>
  </outline>
</glyph>
<glyph name="ruble" format="2">
  <advance width="764"/>
  <unicode hex="20BD"/>
  <outline>
    <contour>
      <point x="141" y="0" type="curve" smooth="yes"/>
      <point x="347" y="0" type="line" smooth="yes"/>
      <point x="362" y="0"/>
      <point x="374" y="12"/>
      <point x="374" y="27" type="curve" smooth="yes"/>
      <point x="374" y="87" type="line"/>
      <point x="457" y="87" type="line" smooth="yes"/>
      <point x="472" y="87"/>
      <point x="484" y="99"/>
      <point x="484" y="114" type="curve" smooth="yes"/>
      <point x="484" y="166" type="line" smooth="yes"/>
      <point x="484" y="181"/>
      <point x="472" y="193"/>
      <point x="457" y="193" type="curve" smooth="yes"/>
      <point x="374" y="193" type="line"/>
      <point x="374" y="238" type="line"/>
      <point x="444" y="238" type="line" smooth="yes"/>
      <point x="625" y="238"/>
      <point x="745" y="303"/>
      <point x="745" y="455" type="curve" smooth="yes"/>
      <point x="745" y="621"/>
      <point x="625" y="700"/>
      <point x="444" y="700" type="curve" smooth="yes"/>
      <point x="141" y="700" type="line" smooth="yes"/>
      <point x="126" y="700"/>
      <point x="114" y="688"/>
      <point x="114" y="673" type="curve" smooth="yes"/>
      <point x="114" y="403" type="line"/>
      <point x="42" y="403" type="line" smooth="yes"/>
      <point x="27" y="403"/>
      <point x="15" y="391"/>
      <point x="15" y="376" type="curve" smooth="yes"/>
      <point x="15" y="265" type="line" smooth="yes"/>
      <point x="15" y="250"/>
      <point x="27" y="238"/>
      <point x="42" y="238" type="curve" smooth="yes"/>
      <point x="114" y="238" type="line"/>
      <point x="114" y="193" type="line"/>
      <point x="42" y="193" type="line" smooth="yes"/>
      <point x="27" y="193"/>
      <point x="15" y="181"/>
      <point x="15" y="166" type="curve" smooth="yes"/>
      <point x="15" y="114" type="line" smooth="yes"/>
      <point x="15" y="99"/>
      <point x="27" y="87"/>
      <point x="42" y="87" type="curve" smooth="yes"/>
      <point x="114" y="87" type="line"/>
      <point x="114" y="27" type="line" smooth="yes"/>
      <point x="114" y="12"/>
      <point x="126" y="0"/>
    </contour>
    <contour>
      <point x="369" y="403" type="line"/>
      <point x="369" y="514" type="line"/>
      <point x="439" y="514" type="line" smooth="yes"/>
      <point x="475" y="514"/>
      <point x="485" y="482"/>
      <point x="485" y="457" type="curve" smooth="yes"/>
      <point x="485" y="418"/>
      <point x="460" y="403"/>
      <point x="439" y="403" type="curve" smooth="yes"/>
    </contour>
  </outline>
</glyph>
<glyph name="greaterequal" format="2">
  <advance width="556"/>
  <unicode hex="2265"/>
  <guideline x="511"/>
  <guideline x="50"/>
  <outline>
    <contour>
      <point x="75" y="194" type="curve" smooth="yes"/>
      <point x="77" y="194"/>
      <point x="81" y="195"/>
      <point x="86" y="197" type="curve" smooth="yes"/>
      <point x="486" y="377" type="line" smooth="yes"/>
      <point x="506" y="386"/>
      <point x="515" y="398"/>
      <point x="515" y="419" type="curve" smooth="yes"/>
      <point x="515" y="461" type="line"/>
      <point x="515" y="482"/>
      <point x="506" y="494"/>
      <point x="486" y="503" type="curve" smooth="yes"/>
      <point x="86" y="683" type="line" smooth="yes"/>
      <point x="81" y="685"/>
      <point x="77" y="686"/>
      <point x="75" y="686" type="curve" smooth="yes"/>
      <point x="63" y="686"/>
      <point x="54" y="677"/>
      <point x="54" y="665" type="curve" smooth="yes"/>
      <point x="54" y="543" type="line" smooth="yes"/>
      <point x="54" y="517"/>
      <point x="73" y="503"/>
      <point x="86" y="499" type="curve" smooth="yes"/>
      <point x="261" y="440" type="line"/>
      <point x="86" y="380" type="line" smooth="yes"/>
      <point x="73" y="375"/>
      <point x="54" y="363"/>
      <point x="54" y="337" type="curve" smooth="yes"/>
      <point x="54" y="215" type="line" smooth="yes"/>
      <point x="54" y="203"/>
      <point x="63" y="194"/>
    </contour>
    <contour>
      <point x="81" y="0" type="curve" smooth="yes"/>
      <point x="488" y="0" type="line" smooth="yes"/>
      <point x="503" y="0"/>
      <point x="515" y="12"/>
      <point x="515" y="27" type="curve" smooth="yes"/>
      <point x="515" y="136" type="line" smooth="yes"/>
      <point x="515" y="151"/>
      <point x="503" y="163"/>
      <point x="488" y="163" type="curve" smooth="yes"/>
      <point x="81" y="163" type="line"/>
      <point x="66" y="163"/>
      <point x="54" y="151"/>
      <point x="54" y="136" type="curve" smooth="yes"/>
      <point x="54" y="27" type="line" smooth="yes"/>
      <point x="54" y="12"/>
      <point x="66" y="0"/>
    </contour>
  </outline>
</glyph>
<glyph name="braceleft.case" format="2">
  <advance width="507"/>
  <outline>
    <contour>
      <point x="443" y="-116" type="curve"/>
      <point x="448" y="-116" type="line"/>
      <point x="460" y="-116"/>
      <point x="470" y="-106"/>
      <point x="470" y="-94" type="curve" smooth="yes"/>
      <point x="470" y="43" type="line" smooth="yes"/>
      <point x="470" y="55"/>
      <point x="460" y="64"/>
      <point x="451" y="65" type="curve"/>
      <point x="446" y="66" type="line"/>
      <point x="376" y="75"/>
      <point x="323" y="105"/>
      <point x="323" y="184" type="curve" smooth="yes"/>
      <point x="323" y="264"/>
      <point x="287" y="338"/>
      <point x="250" y="351" type="curve"/>
      <point x="287" y="364"/>
      <point x="323" y="430"/>
      <point x="323" y="518" type="curve" smooth="yes"/>
      <point x="323" y="598"/>
      <point x="376" y="627"/>
      <point x="448" y="637" type="curve"/>
      <point x="451" y="637" type="line"/>
      <point x="460" y="638"/>
      <point x="470" y="647"/>
      <point x="470" y="659" type="curve" smooth="yes"/>
      <point x="470" y="796" type="line" smooth="yes"/>
      <point x="470" y="808"/>
      <point x="460" y="818"/>
      <point x="448" y="818" type="curve"/>
      <point x="441" y="818" type="line"/>
      <point x="286" y="815"/>
      <point x="113" y="729"/>
      <point x="113" y="529" type="curve" smooth="yes"/>
      <point x="113" y="486"/>
      <point x="98" y="442"/>
      <point x="59" y="426" type="curve" smooth="yes"/>
      <point x="42" y="419" type="line" smooth="yes"/>
      <point x="22" y="410"/>
      <point x="13" y="398"/>
      <point x="13" y="377" type="curve" smooth="yes"/>
      <point x="13" y="325" type="line" smooth="yes"/>
      <point x="13" y="304"/>
      <point x="22" y="292"/>
      <point x="42" y="283" type="curve" smooth="yes"/>
      <point x="59" y="276" type="line" smooth="yes"/>
      <point x="98" y="260"/>
      <point x="113" y="216"/>
      <point x="113" y="173" type="curve" smooth="yes"/>
      <point x="113" y="-28"/>
      <point x="287" y="-114"/>
    </contour>
  </outline>
</glyph>
<glyph name="brevecomb.case" format="2">
  <guideline y="915"/>
  <guideline y="875"/>
  <guideline y="920"/>
  <guideline y="745"/>
  <guideline x="227"/>
  <anchor x="227" y="700" name="_top"/>
  <anchor x="227" y="920" name="top"/>
  <outline>
    <contour>
      <point x="227" y="745" type="curve" smooth="yes"/>
      <point x="347" y="745"/>
      <point x="404" y="811"/>
      <point x="404" y="901" type="curve" smooth="yes"/>
      <point x="404" y="911"/>
      <point x="397" y="920"/>
      <point x="385" y="920" type="curve" smooth="yes"/>
      <point x="286" y="920" type="line" smooth="yes"/>
      <point x="274" y="920"/>
      <point x="267" y="911"/>
      <point x="267" y="901" type="curve" smooth="yes"/>
      <point x="267" y="871"/>
      <point x="259" y="846"/>
      <point x="227" y="846" type="curve" smooth="yes"/>
      <point x="195" y="846"/>
      <point x="187" y="871"/>
      <point x="187" y="901" type="curve" smooth="yes"/>
      <point x="187" y="911"/>
      <point x="180" y="920"/>
      <point x="168" y="920" type="curve" smooth="yes"/>
      <point x="69" y="920" type="line" smooth="yes"/>
      <point x="57" y="920"/>
      <point x="50" y="911"/>
      <point x="50" y="901" type="curve" smooth="yes"/>
      <point x="50" y="811"/>
      <point x="107" y="745"/>
    </contour>
  </outline>
</glyph>
<glyph name="macroncomb.case" format="2">
  <guideline y="920"/>
  <anchor x="262" y="700" name="_top"/>
  <anchor x="262" y="900" name="top"/>
  <outline>
    <contour>
      <point x="73" y="750" type="curve" smooth="yes"/>
      <point x="450" y="750" type="line" smooth="yes"/>
      <point x="463" y="750"/>
      <point x="473" y="760"/>
      <point x="473" y="773" type="curve" smooth="yes"/>
      <point x="473" y="877" type="line" smooth="yes"/>
      <point x="473" y="890"/>
      <point x="463" y="900"/>
      <point x="450" y="900" type="curve" smooth="yes"/>
      <point x="73" y="900" type="line" smooth="yes"/>
      <point x="60" y="900"/>
      <point x="50" y="890"/>
      <point x="50" y="877" type="curve" smooth="yes"/>
      <point x="50" y="773" type="line" smooth="yes"/>
      <point x="50" y="760"/>
      <point x="60" y="750"/>
    </contour>
  </outline>
</glyph>
<glyph name="two.otlf" format="2">
  <advance width="700"/>
  <guideline y="176"/>
  <guideline x="35"/>
  <guideline x="650"/>
  <outline>
    <contour>
      <point x="60" y="0" type="curve" smooth="yes"/>
      <point x="636" y="0" type="line" smooth="yes"/>
      <point x="651" y="0"/>
      <point x="663" y="12"/>
      <point x="663" y="27" type="curve" smooth="yes"/>
      <point x="663" y="179" type="line" smooth="yes"/>
      <point x="663" y="194"/>
      <point x="651" y="206"/>
      <point x="636" y="206" type="curve" smooth="yes"/>
      <point x="425" y="206" type="line"/>
      <point x="433" y="211" type="line"/>
      <point x="561" y="300"/>
      <point x="648" y="379"/>
      <point x="648" y="490" type="curve" smooth="yes"/>
      <point x="648" y="632"/>
      <point x="531" y="714"/>
      <point x="349" y="714" type="curve" smooth="yes"/>
      <point x="177" y="714"/>
      <point x="48" y="616"/>
      <point x="45" y="465" type="curve" smooth="yes"/>
      <point x="45" y="453"/>
      <point x="55" y="443"/>
      <point x="67" y="443" type="curve" smooth="yes"/>
      <point x="255" y="443" type="line" smooth="yes"/>
      <point x="273" y="443"/>
      <point x="288" y="447"/>
      <point x="295" y="466" type="curve" smooth="yes"/>
      <point x="301" y="482"/>
      <point x="309" y="517"/>
      <point x="350" y="517" type="curve" smooth="yes"/>
      <point x="385" y="517"/>
      <point x="386" y="496"/>
      <point x="386" y="477" type="curve" smooth="yes"/>
      <point x="386" y="418"/>
      <point x="277" y="343"/>
      <point x="67" y="192" type="curve"/>
      <point x="58" y="185" type="line"/>
      <point x="33" y="167"/>
      <point x="33" y="139"/>
      <point x="33" y="131" type="curve" smooth="yes"/>
      <point x="33" y="27" type="line" smooth="yes"/>
      <point x="33" y="12"/>
      <point x="45" y="0"/>
    </contour>
  </outline>
</glyph>
<glyph name="verticalbar-cy.case" format="2">
  <advance width="266"/>
  <anchor x="133" y="358" name="_center"/>
  <outline>
    <contour>
      <point x="100" y="505" type="curve" smooth="yes"/>
      <point x="100" y="210" type="line" smooth="yes"/>
      <point x="100" y="195"/>
      <point x="112" y="183"/>
      <point x="127" y="183" type="curve" smooth="yes"/>
      <point x="139" y="183" type="line" smooth="yes"/>
      <point x="154" y="183"/>
      <point x="166" y="195"/>
      <point x="166" y="210" type="curve" smooth="yes"/>
      <point x="166" y="505" type="line" smooth="yes"/>
      <point x="166" y="520"/>
      <point x="154" y="532"/>
      <point x="139" y="532" type="curve" smooth="yes"/>
      <point x="127" y="532" type="line" smooth="yes"/>
      <point x="112" y="532"/>
      <point x="100" y="520"/>
    </contour>
  </outline>
</glyph>
